<svg width="14" height="17" viewBox="0 0 14 17" fill="none" xmlns="http://www.w3.org/2000/svg">
<path d="M3.8442 4.46319C3.9514 4.68239 4.0666 4.87439 4.1114 5.10319C4.2362 5.73839 4.52259 6.30959 4.9514 6.78159C5.22339 7.08079 5.2074 7.38799 5.1146 7.69679C5.0346 7.96399 5.0586 8.15919 5.2362 8.36399C5.473 8.63919 5.70979 8.91279 6.0378 9.08719C6.417 9.29039 6.94819 9.25519 7.377 8.92079C7.7274 8.64719 7.9898 8.29679 8.233 7.92879C8.2762 7.86479 8.2586 7.80879 8.2458 7.74799C8.2298 7.67279 8.2154 7.59759 8.1994 7.52399C8.1338 7.22159 8.2234 6.98159 8.4298 6.74479C8.8426 6.26959 9.11779 5.71599 9.2458 5.09679C9.2922 4.87279 9.4106 4.68719 9.5354 4.48879C9.5322 4.56559 9.5354 4.64399 9.5242 4.72079C9.4058 5.51119 9.4954 6.29199 9.6362 7.06639C9.6954 7.38479 9.7994 7.69839 9.9274 8.00079C10.0026 8.17679 10.1818 8.17359 10.3194 8.22959C10.817 8.42799 11.3002 8.65199 11.7578 8.93359C12.1722 9.18799 12.3818 9.57519 12.529 10.012C12.7594 10.6936 12.961 11.3832 13.0986 12.092C13.249 12.8696 13.3082 13.6504 13.2634 14.4408C13.2426 14.7864 13.025 14.9928 12.7354 15.1016C12.049 15.3592 11.3418 15.5592 10.6218 15.7064C10.1978 15.7928 9.77219 15.8584 9.3498 15.94C9.0298 16.0024 8.7162 15.9944 8.3978 15.996C7.5594 16.0024 6.7194 15.9848 5.881 16.0024C5.0746 16.0184 4.2826 15.9336 3.489 15.7848C2.6714 15.6328 1.865 15.4504 1.0778 15.1896C0.855396 15.116 0.636196 15.0328 0.420196 14.9416C0.0857956 14.8008 0.0329956 14.5 0.00899564 14.1992C-0.0278044 13.7304 0.0569956 13.2664 0.106596 12.804C0.173796 12.1816 0.280996 11.564 0.434596 10.956C0.578596 10.3848 0.752996 9.82159 1.0666 9.32079C1.3178 8.91919 1.7242 8.69839 2.161 8.53839C2.5242 8.40719 2.889 8.2808 3.2522 8.14799C3.3354 8.11759 3.3946 8.06479 3.433 7.96879C3.6506 7.41039 3.7754 6.83599 3.8298 6.23759C3.8778 5.71919 3.9002 5.20559 3.8234 4.68879C3.8154 4.62319 3.801 4.55279 3.8442 4.46319ZM6.1946 13.7144C6.1946 13.8616 6.20099 13.9832 6.193 14.1048C6.185 14.2264 6.2234 14.2792 6.353 14.2728C6.545 14.2648 6.737 14.2648 6.929 14.2728C7.06019 14.2792 7.09379 14.2216 7.09059 14.1032C7.08419 13.8728 7.0954 13.6424 7.08579 13.412C7.081 13.2744 7.121 13.2152 7.26979 13.2216C7.5002 13.2312 7.7306 13.2184 7.961 13.2264C8.08739 13.2312 8.1338 13.18 8.1322 13.0584C8.129 12.8664 8.1242 12.6744 8.13379 12.484C8.1418 12.348 8.07619 12.3224 7.961 12.324C7.7434 12.3288 7.52579 12.3256 7.3082 12.3288C7.1498 12.332 7.07459 12.2712 7.0842 12.1C7.097 11.8776 7.08579 11.652 7.09059 11.428C7.09219 11.3224 7.05699 11.2792 6.94499 11.2824C6.74659 11.2888 6.54819 11.2872 6.34979 11.2824C6.23779 11.2808 6.1882 11.3176 6.1914 11.4376C6.1978 11.668 6.185 11.8984 6.1962 12.1288C6.2026 12.276 6.1354 12.3224 6.0042 12.3224C5.8378 12.3224 5.6714 12.324 5.505 12.3256C5.1482 12.3304 5.1482 12.332 5.1498 12.6952C5.15139 13.2248 5.15139 13.2216 5.67779 13.2264C5.8426 13.228 6.0522 13.1544 6.15779 13.2616C6.26659 13.3656 6.177 13.5768 6.1946 13.7144ZM4.5178 3.73679C4.3002 3.73679 4.0826 3.73199 3.865 3.73839C3.7194 3.74319 3.6602 3.68879 3.6554 3.53839C3.6426 3.16719 3.617 2.79279 3.6682 2.42639C3.7914 1.55439 4.2522 0.578394 5.401 0.227994C5.9178 0.0695938 6.43779 -0.0488062 6.97059 0.0199938C7.97219 0.147994 8.8538 0.520794 9.3434 1.47599C9.6586 2.08879 9.65699 2.76879 9.6298 3.44239C9.62819 3.50319 9.6378 3.56559 9.5226 3.54319C9.433 3.52559 9.4186 3.64239 9.4042 3.70959C9.3818 3.81519 9.35139 3.83119 9.2506 3.77839C8.8138 3.54959 8.5274 3.19279 8.3514 2.74319C8.3034 2.61999 8.2826 2.59759 8.1594 2.68399C7.361 3.24079 6.473 3.55279 5.5082 3.68079C5.1786 3.72559 4.849 3.73999 4.5178 3.73679Z" fill="#DDE2FF"/>
</svg>
